<svg xmlns="http://www.w3.org/2000/svg" width="48" height="48" viewBox="0 0 48 48">
  <!-- Baggrund: rund og sort -->
  <rect x="0" y="0" width="48" height="48" rx="24" fill="black" />

  <!-- Ikon: dit originale SVG -->
  <g stroke="white" stroke-width="2" fill="none" transform="translate(9,10)">
    <path d="M15.114 20.592a6.117 6.117 0 1 0 0-12.234 6.117 6.117 0 0 0 0 12.234Z"/>
    <path d="M23.718 8.51c.308.434.577.894.805 1.374l3.31 1.817a12.69 12.69 0 0 1 .013 5.55l-3.323 1.816c-.228.48-.497.94-.805 1.375l.064 3.746a13.333 13.333 0 0 1-4.87 2.788l-3.258-1.93c-.536.038-1.074.038-1.61 0l-3.247 1.917a13.155 13.155 0 0 1-4.882-2.775l.064-3.734c-.305-.44-.574-.904-.805-1.387l-3.31-1.817a12.702 12.702 0 0 1-.013-5.55l3.323-1.816c.228-.48.498-.94.805-1.375l-.064-3.746a13.333 13.333 0 0 1 4.87-2.787l3.258 1.93a11.435 11.435 0 0 1 1.61 0L18.9 1.987a13.154 13.154 0 0 1 4.882 2.775l-.064 3.746Z"/>
  </g>
</svg>